HIERARCHY
ROOT Root
{
  OFFSET 0.0 0.0 0.0
  CHANNELS 6 Xposition Yposition Zposition Zrotation Yrotation Xrotation
  JOINT Hips
  {
    OFFSET 0.0 100.0 0.0
    CHANNELS 6 Xposition Yposition Zposition Zrotation Yrotation Xrotation
    JOINT Spine1
    {
      OFFSET 5.003913 -0.037094 -0.013727
      CHANNELS 3 Zrotation Yrotation Xrotation
      JOINT Spine2
      {
        OFFSET 7.125363 -1e-06 0.0
        CHANNELS 3 Zrotation Yrotation Xrotation
        JOINT Chest
        {
          OFFSET 7.594027 1e-06 0.0
          CHANNELS 3 Zrotation Yrotation Xrotation
          JOINT Neck1
          {
            OFFSET 26.313086 -0.460272 -0.181672
            CHANNELS 3 Zrotation Yrotation Xrotation
            JOINT Neck2
            {
              OFFSET 8.045911 0.0 0.0
              CHANNELS 3 Zrotation Yrotation Xrotation
              JOINT Head
              {
                OFFSET 6.432774 0.0 0.0
                CHANNELS 3 Zrotation Yrotation Xrotation
                JOINT HeadEnd
                {
                  OFFSET 16.169773 0.06451 0.00362
                  CHANNELS 3 Zrotation Yrotation Xrotation
                }
                JOINT Jaw
                {
                  OFFSET 0.108741 3.12938 0.002639
                  CHANNELS 3 Zrotation Yrotation Xrotation
                }
                JOINT LeftEye
                {
                  OFFSET 4.45173 8.166359 3.206392
                  CHANNELS 3 Zrotation Yrotation Xrotation
                }
                JOINT RightEye
                {
                  OFFSET 4.436895 8.135758 -3.222429
                  CHANNELS 3 Zrotation Yrotation Xrotation
                }
              }
            }
          }
          JOINT LeftShoulder
          {
            OFFSET 23.218927 5.195579 1.621656
            CHANNELS 3 Zrotation Yrotation Xrotation
            JOINT LeftArm
            {
              OFFSET 15.902118 2e-06 -2e-06
              CHANNELS 3 Zrotation Yrotation Xrotation
              JOINT LeftForeArm
              {
                OFFSET 28.739307 0.0 -1e-06
                CHANNELS 3 Zrotation Yrotation Xrotation
                JOINT LeftHand
                {
                  OFFSET 27.093981 -4e-06 0.0
                  CHANNELS 3 Zrotation Yrotation Xrotation
                  JOINT LeftHandThumb1
                  {
                    OFFSET 2.276781 3.380274 0.83384
                    CHANNELS 3 Zrotation Yrotation Xrotation
                    JOINT LeftHandThumb2
                    {
                      OFFSET 4.705309 -1e-06 -1e-06
                      CHANNELS 3 Zrotation Yrotation Xrotation
                      JOINT LeftHandThumb3
                      {
                        OFFSET 2.798515 0.0 3e-06
                        CHANNELS 3 Zrotation Yrotation Xrotation
                        JOINT LeftHandThumbEnd
                        {
                          OFFSET 3.180793 4e-06 -4e-06
                          CHANNELS 3 Zrotation Yrotation Xrotation
                        }
                      }
                    }
                  }
                  JOINT LeftHandIndex1
                  {
                    OFFSET 3.247786 2.352677 0.137192
                    CHANNELS 3 Zrotation Yrotation Xrotation
                    JOINT LeftHandIndex2
                    {
                      OFFSET 6.367095 1e-06 0.0
                      CHANNELS 3 Zrotation Yrotation Xrotation
                      JOINT LeftHandIndex3
                      {
                        OFFSET 3.662364 0.0 0.0
                        CHANNELS 3 Zrotation Yrotation Xrotation
                        JOINT LeftHandIndex4
                        {
                          OFFSET 2.329242 4e-06 -4e-06
                          CHANNELS 3 Zrotation Yrotation Xrotation
                          JOINT LeftHandIndexEnd
                          {
                            OFFSET 2.767823 1e-06 0.0
                            CHANNELS 3 Zrotation Yrotation Xrotation
                          }
                        }
                      }
                    }
                  }
                  JOINT LeftHandMiddle1
                  {
                    OFFSET 3.163612 0.945023 -0.406112
                    CHANNELS 3 Zrotation Yrotation Xrotation
                    JOINT LeftHandMiddle2
                    {
                      OFFSET 6.276789 3e-06 0.0
                      CHANNELS 3 Zrotation Yrotation Xrotation
                      JOINT LeftHandMiddle3
                      {
                        OFFSET 4.35652 -1e-06 4e-06
                        CHANNELS 3 Zrotation Yrotation Xrotation
                        JOINT LeftHandMiddle4
                        {
                          OFFSET 2.996877 0.0 8e-06
                          CHANNELS 3 Zrotation Yrotation Xrotation
                          JOINT LeftHandMiddleEnd
                          {
                            OFFSET 2.323256 3e-06 -4e-06
                            CHANNELS 3 Zrotation Yrotation Xrotation
                          }
                        }
                      }
                    }
                  }
                  JOINT LeftHandRing1
                  {
                    OFFSET 2.882606 -0.309162 0.107445
                    CHANNELS 3 Zrotation Yrotation Xrotation
                    JOINT LeftHandRing2
                    {
                      OFFSET 6.033198 0.0 4e-06
                      CHANNELS 3 Zrotation Yrotation Xrotation
                      JOINT LeftHandRing3
                      {
                        OFFSET 4.350578 3e-06 0.0
                        CHANNELS 3 Zrotation Yrotation Xrotation
                        JOINT LeftHandRing4
                        {
                          OFFSET 2.651321 2e-06 -7e-06
                          CHANNELS 3 Zrotation Yrotation Xrotation
                          JOINT LeftHandRingEnd
                          {
                            OFFSET 1.937663 1e-06 -4e-06
                            CHANNELS 3 Zrotation Yrotation Xrotation
                          }
                        }
                      }
                    }
                  }
                  JOINT LeftHandPinky1
                  {
                    OFFSET 2.865315 -1.525436 0.575687
                    CHANNELS 3 Zrotation Yrotation Xrotation
                    JOINT LeftHandPinky2
                    {
                      OFFSET 5.54936 1e-06 -8e-06
                      CHANNELS 3 Zrotation Yrotation Xrotation
                      JOINT LeftHandPinky3
                      {
                        OFFSET 3.070974 0.0 -4e-06
                        CHANNELS 3 Zrotation Yrotation Xrotation
                        JOINT LeftHandPinky4
                        {
                          OFFSET 1.549672 1e-06 0.0
                          CHANNELS 3 Zrotation Yrotation Xrotation
                          JOINT LeftHandPinkyEnd
                          {
                            OFFSET 1.952123 0.0 0.0
                            CHANNELS 3 Zrotation Yrotation Xrotation
                          }
                        }
                      }
                    }
                  }
                }
              }
            }
          }
          JOINT RightShoulder
          {
            OFFSET 23.161716 5.296122 -1.380114
            CHANNELS 3 Zrotation Yrotation Xrotation
            JOINT RightArm
            {
              OFFSET -16.027195 -2e-06 1.1e-05
              CHANNELS 3 Zrotation Yrotation Xrotation
              JOINT RightForeArm
              {
                OFFSET -28.736639 4e-06 2e-06
                CHANNELS 3 Zrotation Yrotation Xrotation
                JOINT RightHand
                {
                  OFFSET -27.133619 6e-06 0.0
                  CHANNELS 3 Zrotation Yrotation Xrotation
                  JOINT RightHandThumb1
                  {
                    OFFSET -2.274328 -3.351035 -0.83067
                    CHANNELS 3 Zrotation Yrotation Xrotation
                    JOINT RightHandThumb2
                    {
                      OFFSET -4.703594 -3e-06 2e-06
                      CHANNELS 3 Zrotation Yrotation Xrotation
                      JOINT RightHandThumb3
                      {
                        OFFSET -2.794935 -4e-06 -3e-06
                        CHANNELS 3 Zrotation Yrotation Xrotation
                        JOINT RightHandThumbEnd
                        {
                          OFFSET -3.183852 4e-06 1e-06
                          CHANNELS 3 Zrotation Yrotation Xrotation
                        }
                      }
                    }
                  }
                  JOINT RightHandIndex1
                  {
                    OFFSET -3.253496 -2.33755 -0.127667
                    CHANNELS 3 Zrotation Yrotation Xrotation
                    JOINT RightHandIndex2
                    {
                      OFFSET -6.344434 0.0 0.0
                      CHANNELS 3 Zrotation Yrotation Xrotation
                      JOINT RightHandIndex3
                      {
                        OFFSET -3.654871 0.0 -8e-06
                        CHANNELS 3 Zrotation Yrotation Xrotation
                        JOINT RightHandIndex4
                        {
                          OFFSET -2.327586 -1e-06 0.0
                          CHANNELS 3 Zrotation Yrotation Xrotation
                          JOINT RightHandIndexEnd
                          {
                            OFFSET -2.770001 3e-06 8e-06
                            CHANNELS 3 Zrotation Yrotation Xrotation
                          }
                        }
                      }
                    }
                  }
                  JOINT RightHandMiddle1
                  {
                    OFFSET -3.168223 -0.944764 0.411762
                    CHANNELS 3 Zrotation Yrotation Xrotation
                    JOINT RightHandMiddle2
                    {
                      OFFSET -6.266691 -1e-06 -4e-06
                      CHANNELS 3 Zrotation Yrotation Xrotation
                      JOINT RightHandMiddle3
                      {
                        OFFSET -4.348901 0.0 0.0
                        CHANNELS 3 Zrotation Yrotation Xrotation
                        JOINT RightHandMiddle4
                        {
                          OFFSET -3.00024 2e-06 -4e-06
                          CHANNELS 3 Zrotation Yrotation Xrotation
                          JOINT RightHandMiddleEnd
                          {
                            OFFSET -2.321477 -4e-06 -4e-06
                            CHANNELS 3 Zrotation Yrotation Xrotation
                          }
                        }
                      }
                    }
                  }
                  JOINT RightHandRing1
                  {
                    OFFSET -2.885654 0.293261 -0.119232
                    CHANNELS 3 Zrotation Yrotation Xrotation
                    JOINT RightHandRing2
                    {
                      OFFSET -6.032835 -1e-06 -4e-06
                      CHANNELS 3 Zrotation Yrotation Xrotation
                      JOINT RightHandRing3
                      {
                        OFFSET -4.33881 0.0 -4e-06
                        CHANNELS 3 Zrotation Yrotation Xrotation
                        JOINT RightHandRing4
                        {
                          OFFSET -2.654903 -4e-06 -4e-06
                          CHANNELS 3 Zrotation Yrotation Xrotation
                          JOINT RightHandRingEnd
                          {
                            OFFSET -1.935122 0.0 4e-06
                            CHANNELS 3 Zrotation Yrotation Xrotation
                          }
                        }
                      }
                    }
                  }
                  JOINT RightHandPinky1
                  {
                    OFFSET -2.866241 1.503904 -0.60527
                    CHANNELS 3 Zrotation Yrotation Xrotation
                    JOINT RightHandPinky2
                    {
                      OFFSET -5.553177 -2e-06 0.0
                      CHANNELS 3 Zrotation Yrotation Xrotation
                      JOINT RightHandPinky3
                      {
                        OFFSET -3.062664 -1e-06 -4e-06
                        CHANNELS 3 Zrotation Yrotation Xrotation
                        JOINT RightHandPinky4
                        {
                          OFFSET -1.546529 2e-06 4e-06
                          CHANNELS 3 Zrotation Yrotation Xrotation
                          JOINT RightHandPinkyEnd
                          {
                            OFFSET -1.952341 0.0 -4e-06
                            CHANNELS 3 Zrotation Yrotation Xrotation
                          }
                        }
                      }
                    }
                  }
                }
              }
            }
          }
        }
      }
    }
    JOINT LeftLeg
    {
      OFFSET -8.443107 2.567604 10.043214
      CHANNELS 3 Zrotation Yrotation Xrotation
      JOINT LeftShin
      {
        OFFSET 43.229198 1e-06 -1e-06
        CHANNELS 3 Zrotation Yrotation Xrotation
        JOINT LeftFoot
        {
          OFFSET 42.298611 1e-06 1e-06
          CHANNELS 3 Zrotation Yrotation Xrotation
          JOINT LeftToeBase
          {
            OFFSET 14.165858 1e-06 0.0
            CHANNELS 3 Zrotation Yrotation Xrotation
            JOINT LeftToeEnd
            {
              OFFSET 6.7141 -0.234461 0.0
              CHANNELS 3 Zrotation Yrotation Xrotation
            }
          }
        }
      }
    }
    JOINT RightLeg
    {
      OFFSET -8.303923 2.592729 -10.047278
      CHANNELS 3 Zrotation Yrotation Xrotation
      JOINT RightShin
      {
        OFFSET -43.369682 0.0 1e-06
        CHANNELS 3 Zrotation Yrotation Xrotation
        JOINT RightFoot
        {
          OFFSET -42.260784 4e-06 2e-06
          CHANNELS 3 Zrotation Yrotation Xrotation
          JOINT RightToeBase
          {
            OFFSET -14.222245 -2e-06 -1e-06
            CHANNELS 3 Zrotation Yrotation Xrotation
            JOINT RightToeEnd
            {
              OFFSET -6.660062 0.232574 -2e-06
              CHANNELS 3 Zrotation Yrotation Xrotation
            }
          }
        }
      }
    }
  }
}
MOTION
Frames: 4
Frame Time: 0.03333333333333333
0.0 0.0 0.0 0.0 -0.0 0.0 0.0 100.245712 5.41918 90.225632 0.889279 89.921043 -3.534723 -0.577254 0.222773 -12.225451 -0.419477 0.167343 21.951862 -0.567562 -1.879367 25.442148 -2.582051 2.521468 -2.636666 -0.597453 -0.994776 -32.103683 1.504187 -2.775034 6e-06 0.0 0.0 -0.009361 0.030084 -0.034695 -0.035674 0.099224 -0.033811 -0.069298 -0.038518 -0.028896 -133.248749 -67.426926 151.020218 39.734833 -47.035 11.720602 34.143387 0.092865 0.287112 -12.712584 2.936751 1.3307 17.636848 -26.323092 52.411755 -19.467005 -14.395816 29.410839 -4e-06 -8.774997 1e-06 16.648531 -18.078341 5.915107 -0.60978 -1.795677 -3.889369 -4.807163 -11.046995 -2.937891 1.3e-05 -20.976484 3e-06 -5.020088 -25.034258 -4.031962 6e-06 1e-06 0.0 -10.634665 -5.687044 -3.565615 10.573454 -17.923254 -3.113962 7e-06 -13.8215 1e-06 -0.501773 -31.182405 -4.027118 -11.63577 -60.188877 7.516742 -13.982886 -7.150289 -2.87506 13.772949 -8.40163 -3.2183 0.347753 -34.212387 0.771668 -0.96305 -17.733868 2.621095 3e-06 1e-06 2e-06 -17.346651 -20.095484 -4.2018 21.757898 -1.638406 3.866477 4e-06 -6.338956 0.0 -1.697607 -22.59236 -6.19417 -2e-06 -3e-06 -1e-06 67.191566 -79.659607 127.129646 38.569481 -59.548759 8.585086 31.987904 -0.210296 0.127039 -1.562794 -2.687449 -5.93613 22.182388 -20.376064 49.933769 -16.702074 -16.743725 28.476883 5e-06 -12.690815 -1e-05 16.240368 -17.645859 2.563994 -0.105922 -1.513877 -4.275924 -5.039118 -5.612959 -2.953597 -1e-06 -11.020724 -1.1e-05 -6.111429 -15.895706 -3.840566 -1e-06 3e-06 -1e-06 -10.283495 -5.680364 -4.341873 11.028442 -11.302561 -2.37267 -1.384297 -14.238846 -6.320237 -0.625426 -26.924826 -3.827729 -4.288486 -49.782616 -3.851462 -13.708692 -7.363577 -3.720968 18.141407 -14.052935 -3.242726 9e-06 -18.787613 -3.4e-05 -0.429708 -8.456228 2.555543 -0.0 1e-06 -3e-06 -15.923753 -20.094749 -5.473624 30.419638 -7.190914 1.735963 3e-06 -8.163062 -1.4e-05 -1.861911 -22.861992 -6.168136 0.0 -4e-06 -1e-06 178.860733 -2.400878 -14.003669 12.066897 -0.003169 0.007407 -78.830795 5.512723 -1.335261 -4.670717 1.344211 2.120131 -1.000004 0.0 -0.0 -3.011792 -4.60002 -17.615105 13.85916 0.083578 -0.163859 -78.080048 6.193015 -2.220237 -4.418004 0.693623 1.699147 -1.000007 0.0 0.0 
0.0 0.0 0.0 0.0 -0.0 0.0 0.003278 100.280609 5.228615 90.26696 0.704371 90.012032 -3.322428 -0.60816 0.220759 -12.173781 -0.39755 0.19438 22.064871 -0.646177 -1.947063 26.169031 -2.660564 2.542295 -2.622398 -0.606591 -0.981217 -31.836926 1.480278 -2.703703 6e-06 -0.0 0.0 -0.008953 0.02729 -0.010542 -0.030222 0.088034 -0.007408 -0.064526 -0.032932 -0.006726 -133.615601 -67.527298 151.539352 40.348797 -46.517281 11.163828 34.168053 0.020569 0.229011 -12.599756 2.732565 1.055091 17.636745 -26.322969 52.411652 -19.46694 -14.395744 29.41077 1e-06 -8.774949 2e-06 16.614269 -18.047857 5.896517 -0.60978 -1.795673 -3.889359 -4.807149 -11.04696 -2.937891 -1e-06 -20.976391 -2.1e-05 -5.020052 -25.034145 -4.031993 7e-06 -0.0 0.0 -10.634624 -5.687033 -3.565614 10.573396 -17.923185 -3.113962 4e-06 -13.821442 -1.6e-05 -0.501743 -31.182253 -4.027157 -11.656357 -60.115379 7.555244 -13.982833 -7.150276 -2.875055 13.772882 -8.401593 -3.218297 0.347744 -34.212208 0.771623 -0.963038 -17.73377 2.621049 -0.0 2e-06 2e-06 -17.346584 -20.095434 -4.201803 21.757803 -1.638382 3.866461 1e-06 -6.338931 -7e-06 -1.697592 -22.592268 -6.194181 -0.0 -4e-06 -1e-06 67.789146 -79.728004 126.569374 39.115669 -59.219189 8.431514 32.18552 -0.271634 0.120568 -1.200043 -2.80854 -6.08083 22.182268 -20.375996 49.933582 -16.701952 -16.74365 28.476742 6e-06 -12.690732 -3e-06 16.278721 -17.663223 2.499728 -0.10592 -1.513867 -4.275903 -5.039089 -5.612922 -2.953579 -3e-06 -11.020644 -6e-06 -6.111387 -15.895575 -3.840528 -0.0 -2e-06 1e-06 -10.283441 -5.680333 -4.341855 11.028378 -11.302492 -2.372651 -1.384292 -14.238748 -6.320193 -0.625443 -26.924618 -3.827681 -4.287845 -49.882217 -3.894198 -13.708622 -7.363535 -3.720953 18.141293 -14.052845 -3.2427 2e-06 -18.787485 -1.6e-05 -0.429718 -8.456168 2.555532 -1e-06 2e-06 -1e-06 -15.923668 -20.094635 -5.473604 30.419468 -7.190864 1.735952 0.0 -8.163013 -6e-06 -1.861923 -22.861809 -6.168059 -0.0 -3e-06 -1e-06 178.655533 -2.307002 -13.790327 11.777374 0.01157 0.042617 -78.554543 5.366207 -1.404825 -4.630794 1.366741 2.131138 -1.000002 1e-06 0.0 -3.280518 -4.597892 -17.356916 13.736341 0.08515 -0.16307 -77.896126 5.905977 -2.252062 -4.399421 0.676553 1.696221 -1.000004 1e-06 -0.0 
0.0 0.0 0.0 0.0 -0.0 0.0 0.014293 100.297203 4.989413 90.349808 0.479345 90.069962 -3.090877 -0.666261 0.227342 -12.125466 -0.389591 0.193178 22.29796 -0.729285 -1.980348 26.986513 -2.731237 2.558729 -2.63542 -0.611899 -0.961287 -31.525158 1.448922 -2.593382 5e-06 -0.0 0.0 -0.007115 0.025479 -0.005146 -0.039248 0.078904 0.002014 -0.068072 -0.028014 -0.005354 -134.233566 -67.670624 152.328064 40.96756 -45.823868 10.627039 34.22538 -0.053427 0.163036 -12.527161 2.418708 0.416843 17.63674 -26.322931 52.411572 -19.466944 -14.395753 29.410736 2e-06 -8.774954 4e-06 16.607239 -18.078268 5.890414 -0.609779 -1.795672 -3.88936 -4.807148 -11.04696 -2.937889 4e-06 -20.976383 -2.6e-05 -5.020055 -25.034136 -4.031988 8e-06 -1e-06 -0.0 -10.634624 -5.687034 -3.565605 10.573402 -17.923185 -3.113964 4e-06 -13.821447 -2e-05 -0.501735 -31.182283 -4.027174 -11.73502 -60.054287 7.561373 -13.982837 -7.150276 -2.875051 13.772889 -8.401591 -3.218297 0.347753 -34.212196 0.771605 -0.963032 -17.733761 2.621039 0.0 -0.0 -0.0 -17.346588 -20.09543 -4.201793 21.757812 -1.638381 3.866454 1e-06 -6.338925 -8e-06 -1.697593 -22.592249 -6.194179 -0.0 -4e-06 -0.0 68.231117 -79.827667 126.128242 39.868748 -58.745113 8.276978 32.384354 -0.323878 0.096203 -0.84192 -2.839543 -6.423926 22.18228 -20.375999 49.933678 -16.702066 -16.743696 28.476856 1e-06 -12.690792 2e-06 16.311571 -17.675104 2.469376 -0.105919 -1.513875 -4.275914 -5.039104 -5.612953 -2.953592 1e-06 -11.020717 -1.9e-05 -6.111413 -15.89571 -3.840563 0.0 1e-06 -1e-06 -10.283462 -5.680353 -4.341866 11.028421 -11.302544 -2.372682 -1.384288 -14.238835 -6.320237 -0.62541 -26.924812 -3.827751 -4.289618 -49.892586 -3.949467 -13.708645 -7.363558 -3.720959 18.141363 -14.052911 -3.242739 1.5e-05 -18.787592 -5e-05 -0.42971 -8.45622 2.555532 -0.0 -3e-06 1e-06 -15.923697 -20.094702 -5.47362 30.419563 -7.190899 1.735934 3e-06 -8.163049 -2.2e-05 -1.861895 -22.861973 -6.168144 2e-06 -7e-06 -2e-06 178.252289 -2.181768 -13.529633 11.740038 0.014829 0.056159 -78.355774 5.173403 -1.403456 -4.563797 1.37292 2.139791 -1.000001 -0.0 0.0 -3.792569 -4.699174 -17.074921 13.956823 0.089684 -0.160589 -77.834778 5.592954 -2.296542 -4.321217 0.67295 1.697093 -1.000005 0.0 0.0 
0.0 0.0 0.0 0.0 -0.0 0.0 0.012743 100.305115 4.70488 90.445663 0.193597 90.084587 -2.8329 -0.735646 0.23454 -12.070283 -0.384419 0.189867 22.588446 -0.81051 -1.98283 27.825686 -2.791144 2.556738 -2.647207 -0.618192 -0.893718 -31.277777 1.436877 -2.435566 6e-06 -0.0 -0.0 -0.004312 0.024308 -0.007294 -0.045778 0.072704 0.004225 -0.068828 -0.024797 -0.012089 -135.006775 -67.834114 153.280106 41.644531 -45.008869 10.107375 34.20507 -0.115627 0.104495 -12.437695 2.089126 -0.336189 17.636816 -26.322939 52.411507 -19.466932 -14.395742 29.410692 7e-06 -8.774961 -4e-06 16.600143 -18.10041 5.895085 -0.60978 -1.795673 -3.889353 -4.807158 -11.046969 -2.937879 -1.3e-05 -20.976398 -5e-06 -5.020086 -25.034145 -4.03197 4e-06 2e-06 1e-06 -10.634643 -5.68704 -3.565603 10.573401 -17.923199 -3.113944 -4e-06 -13.821453 -1e-05 -0.50178 -31.182276 -4.027134 -11.798055 -60.018696 7.577258 -13.982859 -7.150284 -2.875046 13.772898 -8.401599 -3.218283 0.347733 -34.212242 0.771641 -0.963045 -17.733778 2.62106 0.0 -0.0 1e-06 -17.346626 -20.095455 -4.20178 21.757833 -1.638379 3.866468 -1e-06 -6.338932 -4e-06 -1.697618 -22.592264 -6.194159 -2e-06 -5e-06 -0.0 68.551773 -79.927368 125.816414 40.875977 -58.127281 8.198098 32.565491 -0.318651 0.072848 -0.482525 -2.899472 -6.74359 22.182323 -20.375898 49.933475 -16.702019 -16.743662 28.476711 8e-06 -12.690775 -1.2e-05 16.321634 -17.693895 2.468845 -0.105919 -1.513874 -4.275899 -5.039101 -5.61294 -2.953578 -0.0 -11.020671 -1.7e-05 -6.111401 -15.895615 -3.84054 -1e-06 1e-06 1e-06 -10.283468 -5.680352 -4.341851 11.02841 -11.30252 -2.372665 -1.384296 -14.238783 -6.320202 -0.625421 -26.924673 -3.827718 -4.327233 -49.868271 -3.952331 -13.708654 -7.363556 -3.720944 18.141342 -14.052877 -3.242716 1.6e-05 -18.787521 -4.8e-05 -0.4297 -8.456179 2.555514 1e-06 2e-06 0.0 -15.923714 -20.094694 -5.473592 30.419546 -7.190892 1.735961 7e-06 -8.163021 -2.7e-05 -1.861886 -22.861868 -6.168122 1e-06 -7e-06 -2e-06 177.672211 -2.072074 -13.336017 11.877465 0.011665 0.061652 -78.197395 4.958662 -1.376007 -4.525514 1.370125 2.142354 -1.000003 0.0 -0.0 -4.487664 -4.830181 -16.779955 14.343036 0.094292 -0.162012 -77.816216 5.279314 -2.320549 -4.269701 0.668249 1.697044 -1.000005 0.0 0.0 
